<svg height="128" width="128" xmlns="http://www.w3.org/2000/svg" xmlns:xlink="http://www.w3.org/1999/xlink"><linearGradient id="a"><stop offset="0" stop-color="#181818"/><stop offset="1" stop-color="#181818" stop-opacity="0"/></linearGradient><linearGradient id="b" gradientTransform="matrix(2.6285655 0 0 2.5204893 .914429 -4.357972)" gradientUnits="userSpaceOnUse" x1="25.132275" x2="25.132275" y1=".985206" y2="47.013336"><stop offset="0" stop-color="#f4f4f4"/><stop offset="1" stop-color="#dbdbdb"/></linearGradient><linearGradient id="c" gradientTransform="matrix(2.4594595 0 0 3.1081081 4.972985 -14.594554)" gradientUnits="userSpaceOnUse" x1="23.99999" x2="23.99999" y1="5.56415" y2="42.194839"><stop offset="0" stop-color="#fff"/><stop offset=".00648027" stop-color="#fff" stop-opacity=".235294"/><stop offset=".99423188" stop-color="#fff" stop-opacity=".156863"/><stop offset="1" stop-color="#fff" stop-opacity=".392157"/></linearGradient><linearGradient id="d" gradientTransform="matrix(2.1456297 0 0 2.3791292 158.08983 -7.746462)" gradientUnits="userSpaceOnUse" x1="-51.786404" x2="-51.786404" y1="50.786446" y2="2.906247"><stop offset="0" stop-opacity=".317829"/><stop offset="1" stop-opacity=".24031"/></linearGradient><linearGradient id="e" gradientTransform="matrix(2.8421052 0 0 .71428566 -4.210534 87.430066)" gradientUnits="userSpaceOnUse" x1="25.058096" x2="25.058096" y1="47.027729" y2="39.999443"><stop offset="0" stop-color="#181818" stop-opacity="0"/><stop offset=".5" stop-color="#181818"/><stop offset="1" stop-color="#181818" stop-opacity="0"/></linearGradient><radialGradient id="f" cx="4.992979" cy="43.5" gradientTransform="matrix(5.6949649 0 0 .99999992 -52.665305 -162.00149)" gradientUnits="userSpaceOnUse" r="2.5" xlink:href="#a"/><radialGradient id="g" cx="4.992979" cy="43.5" gradientTransform="matrix(5.6949649 0 0 .99999992 75.334676 75.001496)" gradientUnits="userSpaceOnUse" r="2.5" xlink:href="#a"/><linearGradient id="h" gradientUnits="userSpaceOnUse" x1="60.538681" x2="60.538681" y1="1.593123" y2="118.59026"><stop offset="0" stop-color="#9bdb4d"/><stop offset="1" stop-color="#3a9104"/></linearGradient><g opacity=".2" stroke-width="1.03923" transform="matrix(.92592591 0 0 1 4.740749 0)"><path d="m103.78947 116.00149h14.210526v5h-14.210526z" fill="url(#g)"/><path d="m-24.210518-121.00149h14.210526v5h-14.210526z" fill="url(#f)" transform="scale(-1)"/><path d="m24.210518 116.00149h79.578949v5h-79.578949z" fill="url(#e)"/></g><path d="m18 2.0004521c21.081878 0 91.99989.00694 91.99989.00694l.00011 115.9926079s-61.333339 0-91.999999 0c0-38.666664 0-77.33333 0-115.999995z" fill="url(#b)"/><path d="m109.5 117.5h-91v-114.999998h91z" fill="none" stroke="url(#c)" stroke-linecap="round" stroke-linejoin="round"/><path d="m17.500001 1.49999c21.311001 0 92.999899.008 92.999899.008l.0001 116.99202s-61.999997 0-92.999999 0c0-39.000096 0-77.999807 0-116.999456z" fill="none" stroke="url(#d)" stroke-linejoin="round"/><path d="m54 44c-2.89074.000027-4.422981.428249-5.875 1.3125-1.438721.872352-2.125 2.260873-2.125 4.125v5.5625c0 1.111335-.495799 1.88783-1.375 2.4375-.86588.537751-2.82662.875012-4.625.875v3.375c3.54346.000008 6 1.152366 6 3.375v5.0625c0 2.043394.65454 3.59182 2 4.5 1.35876.920119 2.92276 1.351094 6 1.375v-3.25c-1.531959-.0239-2.320621-.310617-3-.8125-.679401-.501886-1-1.207626-1-2.1875v-5.375c0-2.40188-1.19942-3.819802-4.25-4.25v-.25c3.05058-.466025 4.25-1.934498 4.25-4.3125v-5.3125c0-.979854.320599-1.635041 1-2.125.692699-.501864 1.48136-.815231 3-.875zm20 0v3.25c1.51864.05978 2.307301.373136 3 .875.679401.489959 1 1.145146 1 2.125v5.3125c0 2.378002 1.19942 3.846475 4.25 4.3125v.25c-3.05058.430198-4.25 1.84812-4.25 4.25v5.375c0 .979874-.320599 1.685614-1 2.1875-.679379.501883-1.468041.7886-3 .8125v3.25c3.07724-.0239 4.64124-.454881 6-1.375 1.34546-.90818 2-2.456606 2-4.5v-5.0625c0-2.222634 2.45654-3.374992 6-3.375v-3.375c-1.79838.000013-3.75912-.33725-4.625-.875-.879201-.549671-1.375-1.326165-1.375-2.4375v-5.5625c0-1.864127-.6863-3.252648-2.125-4.125-1.452019-.884251-2.98426-1.312473-5.875-1.3125zm-11 9v4h4v-4zm0 12v3l-2 5h3l3-5v-3z" fill="url(#h)"/></svg>